<svg width="438" height="307" viewBox="0 0 438 307" fill="none" xmlns="http://www.w3.org/2000/svg">
<path d="M100.507 65.7499C98.0014 69.1577 95.1957 70.8616 91.9891 70.8616C89.5841 70.8616 87.3796 69.8593 85.3755 67.8547C83.2712 65.8502 81.4675 62.9435 79.8642 59.1349C78.5615 55.8273 77.5595 52.2191 76.858 48.1097C76.1566 43.9001 75.856 39.5903 75.856 34.9798C75.856 30.1688 76.2568 25.6585 77.1586 21.4489C77.9603 17.1391 79.263 13.2302 80.8662 9.8224C82.3693 6.61509 84.0728 4.10937 85.9767 2.50571C87.8806 0.801828 89.985 0 92.0893 0C95.3961 0 98.2018 1.80411 100.707 5.31211C103.312 8.92034 105.316 14.2325 106.719 21.2485H100.106C99.1037 18.2416 97.9012 15.9363 96.4983 14.5331C95.1957 13.2302 93.6926 12.5286 91.9891 12.5286C90.5862 12.5286 89.2835 13.0297 88.1813 14.032C86.9788 15.1345 85.8765 16.7382 84.9747 18.7427C83.8724 20.9478 83.0708 23.4535 82.5697 26.2599C82.0687 29.0663 81.7681 31.9729 81.7681 35.08C81.7681 38.2873 81.9685 41.2942 82.4695 44.1006C82.9706 46.907 83.672 49.3125 84.6741 51.4173C85.5759 53.6223 86.7784 55.3262 87.9809 56.5289C89.2835 57.7317 90.5862 58.333 91.8889 58.333C93.4922 58.333 94.9952 57.6314 96.2979 56.2282C97.6006 54.825 98.8031 52.8205 99.7049 50.0141H106.619C105.116 57.0301 103.112 62.2419 100.507 65.7499Z" fill="white"/>
<path d="M115.337 62.743C112.932 57.4309 111.729 50.916 111.729 43.1984C111.729 39.5902 112.03 36.0822 112.631 32.7747C113.233 29.4671 114.134 26.4603 115.237 23.9546C116.439 21.2484 117.742 19.2438 119.245 17.9409C120.748 16.6379 122.351 15.9363 124.255 15.9363C125.558 15.9363 126.861 16.3372 128.063 17.2393C129.366 18.0411 130.468 19.3441 131.67 21.1482V17.2393H137.282V69.5586H131.67V65.349C130.568 67.0528 129.466 68.3558 128.263 69.2579C127.161 70.1599 125.959 70.5608 124.656 70.5608C120.848 70.7613 117.742 68.0551 115.337 62.743ZM129.566 32.1733C128.163 29.2667 126.56 27.7633 124.656 27.7633C122.652 27.7633 120.948 29.1664 119.546 32.0731C118.143 34.9797 117.441 38.6882 117.441 43.1984C117.441 47.809 118.143 51.6176 119.546 54.6245C120.948 57.6314 122.652 59.235 124.656 59.235C126.56 59.235 128.163 57.7316 129.566 54.6245C130.969 51.5174 131.67 47.9092 131.67 43.6996C131.67 39.0891 130.969 35.1802 129.566 32.1733Z" fill="white"/>
<path d="M143.896 69.6589V17.3396H149.206V20.3464C149.908 18.9432 150.709 17.9409 151.712 17.3396C152.613 16.7382 153.615 16.4375 154.718 16.4375V28.6654C152.613 28.9661 151.211 29.9684 150.509 31.7725C149.808 33.3761 149.507 36.2828 149.507 40.5926V69.6589H143.896Z" fill="white"/>
<path d="M164.939 48.2099C165.44 51.5174 166.242 54.2236 167.444 56.2282C168.646 58.1325 170.049 59.1348 171.653 59.1348C172.855 59.1348 174.058 58.5334 175.06 57.2305C176.062 56.1279 176.964 54.5243 177.665 52.4195H183.878C182.575 58.4332 180.872 63.0437 178.767 66.251C176.663 69.4583 174.358 70.9618 171.653 70.9618C169.849 70.9618 168.145 70.2602 166.642 68.857C165.039 67.4538 163.736 65.349 162.534 62.743C161.432 60.1371 160.53 57.1302 159.828 53.7225C159.227 50.3147 158.927 46.9069 158.927 43.3989C158.927 39.7907 159.227 36.2827 159.828 32.9752C160.43 29.8681 161.231 26.9614 162.334 24.2553C163.636 21.3486 164.939 19.2438 166.442 17.8406C167.945 16.4374 169.649 15.7358 171.452 15.7358C173.557 15.7358 175.561 16.7381 177.565 18.8429C179.469 21.048 181.072 24.0548 182.274 27.8635C182.976 30.1688 183.577 32.7747 183.878 35.6813C184.279 38.4877 184.379 41.695 184.379 45.203V48.2099H164.939ZM167.745 29.9683C166.642 31.6722 165.74 34.0777 165.239 37.1847H178.066C177.465 33.8772 176.663 31.4717 175.561 29.8681C174.458 28.3646 173.256 27.5628 171.753 27.5628C170.15 27.5628 168.847 28.3646 167.745 29.9683Z" fill="white"/>
<path d="M195.702 48.2099C196.203 51.5174 197.005 54.2236 198.207 56.2282C199.41 58.1325 200.813 59.1348 202.416 59.1348C203.618 59.1348 204.821 58.5334 205.823 57.2305C206.825 56.1279 207.727 54.5243 208.428 52.4195H214.641C213.338 58.4332 211.635 63.0437 209.53 66.251C207.426 69.4583 205.121 70.9618 202.416 70.9618C200.612 70.9618 198.909 70.2602 197.406 68.857C195.802 67.4538 194.5 65.349 193.297 62.743C192.195 60.1371 191.293 57.1302 190.592 53.7225C189.99 50.3147 189.69 46.9069 189.69 43.3989C189.69 39.7907 189.99 36.2827 190.592 32.9752C191.193 29.8681 191.994 26.9614 193.097 24.2553C194.399 21.3486 195.702 19.2438 197.205 17.8406C198.708 16.4374 200.412 15.7358 202.215 15.7358C204.32 15.7358 206.324 16.7381 208.328 18.8429C210.232 21.048 211.835 24.0548 213.038 27.8635C213.739 30.1688 214.34 32.7747 214.641 35.6813C215.042 38.4877 215.142 41.695 215.142 45.203V48.2099H195.702ZM198.608 29.9683C197.506 31.6722 196.604 34.0777 196.103 37.1847H208.929C208.328 33.8772 207.526 31.4717 206.424 29.8681C205.322 28.3646 204.119 27.5628 202.616 27.5628C201.013 27.5628 199.71 28.3646 198.608 29.9683Z" fill="white"/>
<path d="M221.254 69.6589V17.3396H226.565V20.3464C227.267 18.9432 228.068 17.9409 229.07 17.3396C229.972 16.7382 230.974 16.4375 232.077 16.4375V28.6654C229.972 28.9661 228.569 29.9684 227.868 31.7725C227.167 33.3761 226.866 36.2828 226.866 40.5926V69.6589H221.254Z" fill="white"/>
<path d="M240.093 1.30298L246.105 47.2077L251.416 1.30298H255.825L261.036 47.1074L267.048 1.30298H272.96L263.541 69.6589H258.431L253.621 25.859L248.711 69.6589H243.6L234.081 1.40321H240.093V1.30298Z" fill="white"/>
<path d="M277.069 32.9752C277.67 29.7678 278.472 26.9614 279.574 24.2553C280.777 21.4489 282.179 19.3441 283.783 17.8406C285.386 16.3372 286.989 15.6356 288.693 15.6356C290.396 15.6356 292.1 16.3372 293.603 17.6402C295.106 19.0434 296.509 21.048 297.812 23.7541C299.014 26.3601 299.916 29.2667 300.617 32.6745C301.319 35.982 301.619 39.3898 301.619 42.8978C301.619 46.4058 301.319 49.9138 300.617 53.3216C300.016 56.6291 299.214 59.636 298.212 62.1417C296.91 65.0483 295.507 67.2533 293.903 68.7568C292.3 70.2602 290.597 71.062 288.893 71.062C287.09 71.062 285.386 70.3604 283.783 68.9572C282.179 67.554 280.877 65.4492 279.674 62.8433C278.472 60.2373 277.57 57.2305 276.969 53.8227C276.368 50.4149 276.067 47.0072 276.067 43.4992C276.167 39.6905 276.468 36.2827 277.069 32.9752ZM283.883 54.6245C285.186 57.6314 286.889 59.1348 288.993 59.1348C290.998 59.1348 292.601 57.6314 293.903 54.6245C295.206 51.7179 295.908 47.9092 295.908 43.1985C295.908 38.3875 295.206 34.5788 293.903 31.6722C292.601 28.8658 290.897 27.4626 288.893 27.4626C286.889 27.4626 285.286 28.8658 283.983 31.7724C282.68 34.7793 281.979 38.588 281.979 43.2987C281.979 47.9092 282.58 51.6177 283.883 54.6245Z" fill="white"/>
<path d="M307.732 69.6589V17.3396H313.043V20.3464C313.744 18.9432 314.546 17.9409 315.548 17.3396C316.45 16.7382 317.452 16.4375 318.554 16.4375V28.6654C316.45 28.9661 315.047 29.9684 314.346 31.7725C313.644 33.3761 313.343 36.2828 313.343 40.5926V69.6589H307.732Z" fill="white"/>
<path d="M323.464 1.30298H328.976V37.0846L336.09 17.2393H342.804L333.886 42.1962L344.407 69.6589H337.193L329.076 47.4081V69.6589H323.565V1.30298H323.464Z" fill="white"/>
<path d="M351.722 50.7156C351.722 53.7225 352.023 55.9275 352.524 57.5311C353.025 59.0346 353.726 59.7362 354.528 59.7362C355.329 59.7362 355.931 59.235 356.331 58.333C356.833 57.3307 357.033 56.1279 357.033 54.5243C357.033 53.0209 356.833 51.8181 356.532 50.9161C356.231 49.9138 355.63 49.1119 354.728 48.5106L353.726 47.7087C352.624 46.9069 351.922 46.2053 351.522 45.8044C350.82 45.1028 350.319 44.5014 350.019 43.9001C349.117 42.3966 348.415 40.6927 348.014 38.5879C347.614 36.5834 347.413 34.2781 347.413 31.7724C347.413 27.3623 348.115 23.6539 349.618 20.5468C351.021 17.3395 352.824 15.8361 354.929 15.8361C357.033 15.8361 358.736 17.2393 360.039 20.1459C361.342 23.1527 362.143 27.4626 362.244 32.9751H356.833C356.732 30.7701 356.532 29.1665 356.231 28.3646C355.931 27.5628 355.43 27.1619 354.728 27.1619C354.127 27.1619 353.626 27.5628 353.325 28.2644C353.025 28.966 352.824 30.0685 352.824 31.3715C352.824 32.6745 353.025 33.5765 353.426 34.3783C353.726 34.8795 354.428 35.5811 355.53 36.4831L357.233 37.8863C359.037 39.49 360.34 41.5948 361.242 44.2007C362.143 46.8067 362.544 50.1142 362.544 54.2236C362.544 58.8341 361.743 62.8433 360.139 66.1508C358.536 69.4583 356.632 71.1622 354.428 71.1622C352.123 71.1622 350.219 69.3581 348.816 65.7499C347.313 62.1417 346.511 57.1302 346.411 50.8158H351.722V50.7156Z" fill="white"/>
<path d="M410.844 73.1669C425.842 73.1669 438 61.0061 438 46.005C438 31.0038 425.842 18.843 410.844 18.843C395.847 18.843 383.688 31.0038 383.688 46.005C383.688 61.0061 395.847 73.1669 410.844 73.1669Z" fill="white"/>
<path d="M27.1557 73.1669C42.1534 73.1669 54.3115 61.0061 54.3115 46.005C54.3115 31.0038 42.1534 18.843 27.1557 18.843C12.158 18.843 0 31.0038 0 46.005C0 61.0061 12.158 73.1669 27.1557 73.1669Z" fill="white"/>
<path d="M343.104 72.8661C331.681 169.486 265.345 243.656 185.28 243.656C105.216 243.656 38.8798 169.486 27.4563 72.8661C25.9533 83.791 25.1516 95.0166 25.1516 106.543C25.1516 217.295 96.7987 307 185.18 307C273.562 307 345.209 217.295 345.209 106.543C345.409 95.0166 344.607 83.791 343.104 72.8661Z" fill="white"/>
<path d="M410.543 72.8663C412.046 83.7912 412.849 95.0168 412.849 106.543C412.849 217.296 341.201 307 252.819 307C249.678 307 246.558 306.886 243.462 306.662C280.993 290.081 312.014 257.94 332.133 217.082C373.525 187.169 403.244 134.602 410.543 72.8663ZM298.625 247.943C299.126 247.313 299.623 246.679 300.117 246.04C299.623 246.679 299.126 247.313 298.625 247.943ZM306.578 237.175H306.579C306.348 237.512 306.115 237.848 305.882 238.184C305.415 238.854 304.945 239.521 304.472 240.184C305.182 239.19 305.884 238.187 306.578 237.175ZM310.649 230.999H310.65C310.43 231.348 310.208 231.695 309.985 232.042C309.54 232.736 309.091 233.426 308.639 234.112L307.957 235.139C308.869 233.774 309.766 232.394 310.649 230.999ZM94.8955 72.8663C103.518 145.796 143.428 205.932 196.911 231.038C193.065 231.429 189.186 231.628 185.281 231.628C160.224 231.628 136.246 223.451 115.174 208.866C100.957 178.918 92.791 143.93 92.791 106.543C92.5906 95.0168 93.3924 83.7912 94.8955 72.8663Z" fill="white"/>
</svg>
